<?xml version="1.0" ?>
<!DOCTYPE svg  PUBLIC '-//W3C//DTD SVG 1.1//EN'  'http://www.w3.org/Graphics/SVG/1.1/DTD/svg11.dtd'>
<!-- Uploaded to: SVG Repo, www.svgrepo.com, Generator: SVG Repo Mixer Tools -->
<svg width="800px" height="800px" viewBox="0 0 32 32" enable-background="new 0 0 32 32" version="1.1" xml:space="preserve" xmlns="http://www.w3.org/2000/svg" xmlns:xlink="http://www.w3.org/1999/xlink">
<g id="Home"/>
<g id="Print"/>
<g id="Mail"/>
<g id="Camera"/>
<g id="Video"/>
<g id="Film">
<path d="M30,1h-4H16H6H2C1.5,1,1,1.5,1,2v7v7v7v7c0,0.5,0.5,1,1,1h4h10h10h4c0.5,0,1-0.5,1-1v-7v-7V9V2   C31,1.5,30.5,1,30,1z" fill="#FFC10A"/>
<path d="M6,1H2C1.5,1,1,1.5,1,2v7v7v7v7c0,0.5,0.5,1,1,1h4c0.5,0,1-0.5,1-1v-7v-7V9V2C7,1.5,6.5,1,6,1z" fill="#2197F3"/>
<path d="M7,23v7c0,0.5-0.5,1-1,1H2c-0.5,0-1-0.5-1-1v-7c0,0.5,0.5,1,1,1h4C6.5,24,7,23.5,7,23z" fill="#3F51B5"/>
<g>
<path d="M7,9v7H1V9c0-0.5,0.5-1,1-1h4C6.5,8,7,8.5,7,9z" fill="#3F51B5"/>
</g>
<path d="M30,1h-4c-0.5,0-1,0.5-1,1v7v7v7v7c0,0.5,0.5,1,1,1h4c0.5,0,1-0.5,1-1v-7v-7V9V2C31,1.5,30.5,1,30,1z" fill="#11A9F3"/>
<path d="M31,23v7c0,0.5-0.5,1-1,1h-4c-0.5,0-1-0.5-1-1v-7c0,0.5,0.5,1,1,1h4C30.5,24,31,23.5,31,23z" fill="#3F51B5"/>
<g>
<path d="M31,9v7h-6V9c0-0.5,0.5-1,1-1h4C30.5,8,31,8.5,31,9z" fill="#3F51B5"/>
</g>
<path d="M25,30V16h-9H7v14c0,0.5-0.5,1-1,1h10h10C25.5,31,25,30.5,25,30z" fill="#FE9803"/>
</g>
<g id="Message"/>
<g id="Telephone"/>
<g id="User"/>
<g id="File"/>
<g id="Folder"/>
<g id="Map"/>
<g id="Download"/>
<g id="Upload"/>
<g id="Video_Recorder"/>
<g id="Schedule"/>
<g id="Cart"/>
<g id="Setting"/>
<g id="Search"/>
<g id="Pencils"/>
<g id="Group"/>
<g id="Record"/>
<g id="Headphone"/>
<g id="Music_Player"/>
<g id="Sound_On"/>
<g id="Sound_Off"/>
<g id="Lock"/>
<g id="Lock_open"/>
<g id="Love"/>
<g id="Favorite"/>
<g id="Film_1_"/>
<g id="Music"/>
<g id="Puzzle"/>
<g id="Turn_Off"/>
<g id="Book"/>
<g id="Save"/>
<g id="Reload"/>
<g id="Trash"/>
<g id="Tag"/>
<g id="Link"/>
<g id="Like"/>
<g id="Bad"/>
<g id="Gallery"/>
<g id="Add"/>
<g id="Close"/>
<g id="Forward"/>
<g id="Back"/>
<g id="Buy"/>
<g id="Mac"/>
<g id="Laptop"/>
</svg>